<svg width="600" height="557" viewBox="0 0 600 557" fill="none" xmlns="http://www.w3.org/2000/svg">
<path d="M494.952 297.091C494.952 244.289 475.877 193.265 441.239 153.413L358.586 225.252C375.905 245.178 385.442 270.69 385.442 297.091H494.952Z" fill="#D1DFD8" stroke="white"/>
<path d="M441.24 153.413C420.432 129.473 394.673 110.338 365.743 97.3315C336.814 84.325 305.404 77.7574 273.687 78.0828C241.97 78.4082 210.702 85.6188 182.045 99.2159C153.388 112.813 128.027 132.472 107.715 156.834L191.824 226.962C201.98 214.781 214.661 204.952 228.989 198.153C243.318 191.355 258.952 187.749 274.81 187.587C290.669 187.424 306.374 190.708 320.838 197.211C335.303 203.714 348.183 213.282 358.587 225.252L441.24 153.413Z" fill="#5ED0F0" stroke="white"/>
<path d="M107.714 156.835C83.9375 185.352 67.8006 219.446 60.8199 255.913C53.8392 292.38 56.2438 330.024 67.8079 365.306C79.372 400.588 99.7159 432.352 126.928 457.612C154.14 482.872 187.328 500.799 223.372 509.71L249.652 403.401C231.63 398.945 215.037 389.982 201.431 377.352C187.824 364.722 177.653 348.84 171.871 331.199C166.089 313.557 164.886 294.736 168.377 276.502C171.867 258.269 179.935 241.222 191.824 226.963L107.714 156.835Z" fill="#0A1E34" stroke="white"/>
<path d="M223.375 509.71C277.925 523.195 335.571 515.198 384.39 487.373C433.21 459.548 469.466 414.023 485.662 360.215L380.799 328.653C372.702 355.557 354.573 378.319 330.163 392.232C305.754 406.145 276.931 410.143 249.656 403.401L223.375 509.71Z" fill="#4D99BB" stroke="white"/>
<path d="M485.659 360.215C491.822 339.74 494.953 318.473 494.953 297.091H385.444C385.444 307.782 383.878 318.415 380.797 328.653L485.659 360.215Z" fill="#3000FF" stroke="white"/>
<mask id="path-7-inside-1_279_3488" fill="white">
<path d="M267.167 79.1666V62.4999C267.167 59.0277 265.951 56.0763 263.521 53.6458C261.09 51.2152 258.139 49.9999 254.667 49.9999H216.438L231.438 64.9999L225.5 70.8333L200.5 45.8333L225.5 20.8333L231.438 26.6666L216.438 41.6666H254.667C260.431 41.6666 265.344 43.6978 269.406 47.7603C273.469 51.8228 275.5 56.736 275.5 62.4999V79.1666H267.167Z"/>
</mask>
<path d="M267.167 79.1666V62.4999C267.167 59.0277 265.951 56.0763 263.521 53.6458C261.09 51.2152 258.139 49.9999 254.667 49.9999H216.438L231.438 64.9999L225.5 70.8333L200.5 45.8333L225.5 20.8333L231.438 26.6666L216.438 41.6666H254.667C260.431 41.6666 265.344 43.6978 269.406 47.7603C273.469 51.8228 275.5 56.736 275.5 62.4999V79.1666H267.167Z" fill="#1D1B20"/>
<path d="M267.167 79.1666H249.167V97.1666H267.167V79.1666ZM216.438 49.9999V31.9999H172.982L203.71 62.7278L216.438 49.9999ZM231.438 64.9999L244.052 77.84L257.006 65.1131L244.165 52.272L231.438 64.9999ZM225.5 70.8333L212.772 83.5612L225.388 96.177L238.115 83.6733L225.5 70.8333ZM200.5 45.8333L187.772 33.1053L175.044 45.8333L187.772 58.5612L200.5 45.8333ZM225.5 20.8333L238.115 7.9932L225.388 -4.51045L212.772 8.10533L225.5 20.8333ZM231.438 26.6666L244.165 39.3945L257.006 26.5534L244.052 13.8265L231.438 26.6666ZM216.438 41.6666L203.71 28.9387L172.982 59.6666H216.438V41.6666ZM275.5 79.1666V97.1666H293.5V79.1666H275.5ZM267.167 79.1666H285.167V62.4999H267.167H249.167V79.1666H267.167ZM267.167 62.4999H285.167C285.167 54.3083 282.093 46.7624 276.249 40.9178L263.521 53.6458L250.793 66.3737C250.458 66.0391 249.976 65.422 249.611 64.5357C249.248 63.653 249.167 62.907 249.167 62.4999H267.167ZM263.521 53.6458L276.249 40.9178C270.404 35.0733 262.858 31.9999 254.667 31.9999V49.9999V67.9999C254.26 67.9999 253.514 67.919 252.631 67.5556C251.745 67.1906 251.127 66.7082 250.793 66.3737L263.521 53.6458ZM254.667 49.9999V31.9999H216.438V49.9999V67.9999H254.667V49.9999ZM216.438 49.9999L203.71 62.7278L218.71 77.7278L231.438 64.9999L244.165 52.272L229.165 37.272L216.438 49.9999ZM231.438 64.9999L218.823 52.1599L212.885 57.9932L225.5 70.8333L238.115 83.6733L244.052 77.84L231.438 64.9999ZM225.5 70.8333L238.228 58.1053L213.228 33.1053L200.5 45.8333L187.772 58.5612L212.772 83.5612L225.5 70.8333ZM200.5 45.8333L213.228 58.5612L238.228 33.5612L225.5 20.8333L212.772 8.10533L187.772 33.1053L200.5 45.8333ZM225.5 20.8333L212.885 33.6733L218.823 39.5066L231.438 26.6666L244.052 13.8265L238.115 7.9932L225.5 20.8333ZM231.438 26.6666L218.71 13.9387L203.71 28.9387L216.438 41.6666L229.165 54.3945L244.165 39.3945L231.438 26.6666ZM216.438 41.6666V59.6666H254.667V41.6666V23.6666H216.438V41.6666ZM254.667 41.6666V59.6666C255.389 59.6666 255.699 59.7838 255.797 59.8245C255.894 59.8646 256.185 59.9951 256.678 60.4883L269.406 47.7603L282.134 35.0324C274.684 27.5819 265.187 23.6666 254.667 23.6666V41.6666ZM269.406 47.7603L256.678 60.4883C257.171 60.9814 257.302 61.2721 257.342 61.3692C257.383 61.4675 257.5 61.7776 257.5 62.4999H275.5H293.5C293.5 51.9796 289.585 42.4829 282.134 35.0324L269.406 47.7603ZM275.5 62.4999H257.5V79.1666H275.5H293.5V62.4999H275.5ZM275.5 79.1666V61.1666H267.167V79.1666V97.1666H275.5V79.1666Z" fill="#5ED0F0" mask="url(#path-7-inside-1_279_3488)"/>
<mask id="path-9-inside-2_279_3488" fill="white">
<path d="M79.1667 380.833V397.5C79.1667 400.972 77.9514 403.924 75.5208 406.354C73.0903 408.785 70.1389 410 66.6667 410H28.4375L43.4375 395L37.5 389.167L12.5 414.167L37.5 439.167L43.4375 433.333L28.4375 418.333H66.6667C72.4306 418.333 77.3438 416.302 81.4062 412.24C85.4688 408.177 87.5 403.264 87.5 397.5V380.833H79.1667Z"/>
</mask>
<path d="M79.1667 380.833V397.5C79.1667 400.972 77.9514 403.924 75.5208 406.354C73.0903 408.785 70.1389 410 66.6667 410H28.4375L43.4375 395L37.5 389.167L12.5 414.167L37.5 439.167L43.4375 433.333L28.4375 418.333H66.6667C72.4306 418.333 77.3438 416.302 81.4062 412.24C85.4688 408.177 87.5 403.264 87.5 397.5V380.833H79.1667Z" fill="#1D1B20"/>
<path d="M79.1667 380.833H30.1667V331.833H79.1667V380.833ZM28.4375 410V459H-89.859L-6.21073 375.352L28.4375 410ZM43.4375 395L77.7778 360.047L113.042 394.692L78.0857 429.648L43.4375 395ZM37.5 389.167L2.85177 354.519L37.1947 320.176L71.8403 354.213L37.5 389.167ZM12.5 414.167L-22.1482 448.815L-56.7965 414.167L-22.1482 379.519L12.5 414.167ZM37.5 439.167L71.8403 474.12L37.1947 508.158L2.85177 473.815L37.5 439.167ZM43.4375 433.333L78.0857 398.685L113.042 433.641L77.7778 468.287L43.4375 433.333ZM28.4375 418.333L-6.21073 452.982L-89.859 369.333H28.4375V418.333ZM87.5 380.833V331.833H136.5V380.833H87.5ZM79.1667 380.833H128.167V397.5H79.1667H30.1667V380.833H79.1667ZM79.1667 397.5H128.167C128.167 413.82 121.893 429.278 110.169 441.002L75.5208 406.354L40.8726 371.706C37.8688 374.71 34.9859 378.707 32.946 383.661C30.9101 388.605 30.1667 393.402 30.1667 397.5H79.1667ZM75.5208 406.354L110.169 441.002C98.4449 452.727 82.9862 459 66.6667 459V410V361C62.5686 361 57.772 361.743 52.8276 363.779C47.8734 365.819 43.8764 368.702 40.8726 371.706L75.5208 406.354ZM66.6667 410V459H28.4375V410V361H66.6667V410ZM28.4375 410L-6.21073 375.352L8.78927 360.352L43.4375 395L78.0857 429.648L63.0857 444.648L28.4375 410ZM43.4375 395L9.09724 429.954L3.15974 424.12L37.5 389.167L71.8403 354.213L77.7778 360.047L43.4375 395ZM37.5 389.167L72.1482 423.815L47.1482 448.815L12.5 414.167L-22.1482 379.519L2.85177 354.519L37.5 389.167ZM12.5 414.167L47.1482 379.519L72.1482 404.519L37.5 439.167L2.85177 473.815L-22.1482 448.815L12.5 414.167ZM37.5 439.167L3.15974 404.213L9.09724 398.38L43.4375 433.333L77.7778 468.287L71.8403 474.12L37.5 439.167ZM43.4375 433.333L8.78927 467.982L-6.21073 452.982L28.4375 418.333L63.0857 383.685L78.0857 398.685L43.4375 433.333ZM28.4375 418.333V369.333H66.6667V418.333V467.333H28.4375V418.333ZM66.6667 418.333V369.333C63.6697 369.333 59.9167 369.889 55.9534 371.527C51.9869 373.167 48.9138 375.436 46.758 377.591L81.4062 412.24L116.054 446.888C102.769 460.173 85.3787 467.333 66.6667 467.333V418.333ZM81.4062 412.24L46.758 377.591C44.6022 379.747 42.3337 382.82 40.6939 386.787C39.0554 390.75 38.5 394.503 38.5 397.5H87.5H136.5C136.5 416.212 129.34 433.603 116.054 446.888L81.4062 412.24ZM87.5 397.5H38.5V380.833H87.5H136.5V397.5H87.5ZM87.5 380.833V429.833H79.1667V380.833V331.833H87.5V380.833Z" fill="#0A1E34" mask="url(#path-9-inside-2_279_3488)"/>
<mask id="path-11-inside-3_279_3488" fill="white">
<path d="M394.833 477.833V494.5C394.833 497.972 396.049 500.924 398.479 503.354C400.91 505.785 403.861 507 407.333 507H445.562L430.562 492L436.5 486.167L461.5 511.167L436.5 536.167L430.562 530.333L445.562 515.333H407.333C401.569 515.333 396.656 513.302 392.594 509.24C388.531 505.177 386.5 500.264 386.5 494.5V477.833H394.833Z"/>
</mask>
<path d="M394.833 477.833V494.5C394.833 497.972 396.049 500.924 398.479 503.354C400.91 505.785 403.861 507 407.333 507H445.562L430.562 492L436.5 486.167L461.5 511.167L436.5 536.167L430.562 530.333L445.562 515.333H407.333C401.569 515.333 396.656 513.302 392.594 509.24C388.531 505.177 386.5 500.264 386.5 494.5V477.833H394.833Z" fill="#1D1B20"/>
<path d="M394.833 477.833H418.833V453.833H394.833V477.833ZM445.562 507V531H503.504L462.533 490.03L445.562 507ZM430.562 492L413.743 474.88L396.471 491.849L413.592 508.971L430.562 492ZM436.5 486.167L453.471 469.196L436.65 452.375L419.68 469.047L436.5 486.167ZM461.5 511.167L478.471 528.137L495.441 511.167L478.471 494.196L461.5 511.167ZM436.5 536.167L419.68 553.287L436.65 569.958L453.471 553.137L436.5 536.167ZM430.562 530.333L413.592 513.363L396.471 530.484L413.743 547.453L430.562 530.333ZM445.562 515.333L462.533 532.304L503.504 491.333H445.562V515.333ZM386.5 477.833V453.833H362.5V477.833H386.5ZM394.833 477.833H370.833V494.5H394.833H418.833V477.833H394.833ZM394.833 494.5H370.833C370.833 504.265 374.526 513.342 381.509 520.325L398.479 503.354L415.45 486.384C416.301 487.235 417.248 488.506 417.937 490.18C418.624 491.849 418.833 493.379 418.833 494.5H394.833ZM398.479 503.354L381.509 520.325C388.491 527.307 397.569 531 407.333 531V507V483C408.455 483 409.985 483.209 411.654 483.896C413.327 484.585 414.599 485.532 415.45 486.384L398.479 503.354ZM407.333 507V531H445.562V507V483H407.333V507ZM445.562 507L462.533 490.03L447.533 475.03L430.562 492L413.592 508.971L428.592 523.971L445.562 507ZM430.562 492L447.382 509.12L453.32 503.287L436.5 486.167L419.68 469.047L413.743 474.88L430.562 492ZM436.5 486.167L419.529 503.137L444.529 528.137L461.5 511.167L478.471 494.196L453.471 469.196L436.5 486.167ZM461.5 511.167L444.529 494.196L419.529 519.196L436.5 536.167L453.471 553.137L478.471 528.137L461.5 511.167ZM436.5 536.167L453.32 519.047L447.382 513.213L430.562 530.333L413.743 547.453L419.68 553.287L436.5 536.167ZM430.562 530.333L447.533 547.304L462.533 532.304L445.562 515.333L428.592 498.363L413.592 513.363L430.562 530.333ZM445.562 515.333V491.333H407.333V515.333V539.333H445.562V515.333ZM407.333 515.333V491.333C407.331 491.333 407.807 491.346 408.495 491.631C408.81 491.761 409.076 491.911 409.281 492.049C409.482 492.186 409.573 492.278 409.564 492.269L392.594 509.24L375.623 526.21C384.203 534.79 395.228 539.333 407.333 539.333V515.333ZM392.594 509.24L409.564 492.269C409.556 492.26 409.647 492.352 409.784 492.553C409.923 492.757 410.073 493.024 410.203 493.338C410.487 494.026 410.5 494.503 410.5 494.5H386.5H362.5C362.5 506.606 367.043 517.63 375.623 526.21L392.594 509.24ZM386.5 494.5H410.5V477.833H386.5H362.5V494.5H386.5ZM386.5 477.833V501.833H394.833V477.833V453.833H386.5V477.833Z" fill="#4D99BB" mask="url(#path-11-inside-3_279_3488)"/>
<mask id="path-13-inside-4_279_3488" fill="white">
<path d="M487.465 331.644L499.269 319.878C501.728 317.427 504.676 316.204 508.114 316.21C511.551 316.215 514.495 317.447 516.947 319.907L543.935 346.982L522.722 346.948L522.782 355.271L558.138 355.328L558.194 319.973L549.871 319.886L549.837 341.099L522.849 314.024C518.78 309.941 513.872 307.896 508.127 307.886C502.382 307.877 497.468 309.907 493.386 313.976L481.582 325.742L487.465 331.644Z"/>
</mask>
<path d="M487.465 331.644L499.269 319.878C501.728 317.427 504.676 316.204 508.114 316.21C511.551 316.215 514.495 317.447 516.947 319.907L543.935 346.982L522.722 346.948L522.782 355.271L558.138 355.328L558.194 319.973L549.871 319.886L549.837 341.099L522.849 314.024C518.78 309.941 513.872 307.896 508.127 307.886C502.382 307.877 497.468 309.907 493.386 313.976L481.582 325.742L487.465 331.644Z" fill="#1D1B20"/>
<path d="M487.465 331.644L508.644 352.892L487.397 374.071L466.218 352.824L487.465 331.644ZM543.935 346.982L565.183 325.803L616.313 377.098L543.887 376.982L543.935 346.982ZM522.722 346.948L492.723 347.165L492.504 316.9L522.77 316.948L522.722 346.948ZM522.782 355.271L522.734 385.271L492.999 385.224L492.783 355.489L522.782 355.271ZM558.138 355.328L588.138 355.376L588.089 385.376L558.09 385.328L558.138 355.328ZM558.194 319.973L558.508 289.975L588.242 290.285L588.194 320.021L558.194 319.973ZM549.871 319.886L519.871 319.838L519.92 289.571L550.185 289.888L549.871 319.886ZM549.837 341.099L579.837 341.147L579.721 413.574L528.59 362.278L549.837 341.099ZM481.582 325.742L460.335 346.922L439.156 325.674L460.403 304.495L481.582 325.742ZM487.465 331.644L466.286 310.397L478.09 298.631L499.269 319.878L520.448 341.126L508.644 352.892L487.465 331.644ZM499.269 319.878L478.09 298.631C486.12 290.627 496.678 286.191 508.162 286.21L508.114 316.21L508.066 346.21C510 346.213 512.36 345.853 514.819 344.833C517.271 343.816 519.148 342.422 520.448 341.126L499.269 319.878ZM508.114 316.21L508.162 286.21C519.646 286.228 530.19 290.698 538.194 298.728L516.947 319.907L495.699 341.086C496.995 342.386 498.868 343.787 501.317 344.812C503.772 345.839 506.131 346.206 508.066 346.21L508.114 316.21ZM516.947 319.907L538.194 298.728L565.183 325.803L543.935 346.982L522.688 368.161L495.699 341.086L516.947 319.907ZM543.935 346.982L543.887 376.982L522.674 376.948L522.722 346.948L522.77 316.948L543.983 316.982L543.935 346.982ZM522.722 346.948L552.721 346.731L552.782 355.054L522.782 355.271L492.783 355.489L492.723 347.165L522.722 346.948ZM522.782 355.271L522.831 325.271L558.186 325.328L558.138 355.328L558.09 385.328L522.734 385.271L522.782 355.271ZM558.138 355.328L528.138 355.28L528.195 319.925L558.194 319.973L588.194 320.021L588.138 355.376L558.138 355.328ZM558.194 319.973L557.881 349.971L549.558 349.884L549.871 319.886L550.185 289.888L558.508 289.975L558.194 319.973ZM549.871 319.886L579.871 319.934L579.837 341.147L549.837 341.099L519.837 341.051L519.871 319.838L549.871 319.886ZM549.837 341.099L528.59 362.278L501.601 335.203L522.849 314.024L544.096 292.844L571.085 319.92L549.837 341.099ZM522.849 314.024L501.601 335.203C502.108 335.711 503.101 336.504 504.573 337.118C506.047 337.732 507.326 337.885 508.079 337.886L508.127 307.886L508.175 277.886C521.906 277.908 534.43 283.148 544.096 292.844L522.849 314.024ZM508.127 307.886L508.079 337.886C508.832 337.888 510.111 337.739 511.587 337.129C513.062 336.52 514.057 335.73 514.565 335.224L493.386 313.976L472.207 292.729C481.904 283.063 494.445 277.864 508.175 277.886L508.127 307.886ZM493.386 313.976L514.565 335.224L502.761 346.99L481.582 325.742L460.403 304.495L472.207 292.729L493.386 313.976ZM481.582 325.742L502.829 304.563L508.712 310.465L487.465 331.644L466.218 352.824L460.335 346.922L481.582 325.742Z" fill="#3000FF" mask="url(#path-13-inside-4_279_3488)"/>
<mask id="path-15-inside-5_279_3488" fill="white">
<path d="M462.782 196.43L464.592 180.815C464.97 177.563 466.429 174.93 468.97 172.916C471.511 170.903 474.408 170.085 477.661 170.463L513.475 174.615L497.793 187.038L502.722 193.148L528.859 172.442L508.153 146.306L501.957 151.126L514.38 166.808L478.566 162.656C473.166 162.03 468.342 163.399 464.095 166.764C459.848 170.128 457.411 174.51 456.785 179.91L454.975 195.524L462.782 196.43Z"/>
</mask>
<path d="M462.782 196.43L464.592 180.815C464.97 177.563 466.429 174.93 468.97 172.916C471.511 170.903 474.408 170.085 477.661 170.463L513.475 174.615L497.793 187.038L502.722 193.148L528.859 172.442L508.153 146.306L501.957 151.126L514.38 166.808L478.566 162.656C473.166 162.03 468.342 163.399 464.095 166.764C459.848 170.128 457.411 174.51 456.785 179.91L454.975 195.524L462.782 196.43Z" fill="#D5D5D5"/>
<path d="M462.782 196.43L523.376 203.455L516.351 264.049L455.757 257.024L462.782 196.43ZM513.475 174.615L520.5 114.021L666.788 130.981L551.354 222.429L513.475 174.615ZM497.793 187.038L450.317 225.339L411.675 177.44L459.914 139.224L497.793 187.038ZM502.722 193.148L540.601 240.962L493.209 278.507L455.246 231.449L502.722 193.148ZM528.859 172.442L576.673 134.563L614.552 182.377L566.738 220.256L528.859 172.442ZM508.153 146.306L470.699 98.1586L518.422 61.0341L555.967 108.427L508.153 146.306ZM501.957 151.126L454.143 189.005L415.927 140.766L464.503 102.979L501.957 151.126ZM514.38 166.808L562.194 128.929L653.643 244.362L507.355 227.402L514.38 166.808ZM454.975 195.524L447.95 256.119L387.356 249.093L394.381 188.499L454.975 195.524ZM462.782 196.43L402.188 189.404L403.998 173.79L464.592 180.815L525.187 187.841L523.376 203.455L462.782 196.43ZM464.592 180.815L403.998 173.79C406.217 154.65 415.724 137.276 431.091 125.102L468.97 172.916L506.849 220.73C511.4 217.125 515.858 212.223 519.325 205.968C522.785 199.725 524.539 193.429 525.187 187.841L464.592 180.815ZM468.97 172.916L431.091 125.102C446.457 112.929 465.546 107.649 484.686 109.868L477.661 170.463L470.636 231.057C476.224 231.705 482.754 231.438 489.623 229.498C496.506 227.555 502.297 224.336 506.849 220.73L468.97 172.916ZM477.661 170.463L484.686 109.868L520.5 114.021L513.475 174.615L506.45 235.209L470.636 231.057L477.661 170.463ZM513.475 174.615L551.354 222.429L535.673 234.852L497.793 187.038L459.914 139.224L475.596 126.801L513.475 174.615ZM497.793 187.038L545.27 148.738L550.199 154.847L502.722 193.148L455.246 231.449L450.317 225.339L497.793 187.038ZM502.722 193.148L464.843 145.334L490.98 124.628L528.859 172.442L566.738 220.256L540.601 240.962L502.722 193.148ZM528.859 172.442L481.045 210.321L460.339 184.185L508.153 146.306L555.967 108.427L576.673 134.563L528.859 172.442ZM508.153 146.306L545.608 194.453L539.411 199.273L501.957 151.126L464.503 102.979L470.699 98.1586L508.153 146.306ZM501.957 151.126L549.771 113.247L562.194 128.929L514.38 166.808L466.566 204.687L454.143 189.005L501.957 151.126ZM514.38 166.808L507.355 227.402L471.541 223.25L478.566 162.656L485.591 102.061L521.406 106.214L514.38 166.808ZM478.566 162.656L471.541 223.25C476.111 223.78 481.649 223.571 487.557 221.894C493.469 220.216 498.32 217.473 501.974 214.577L464.095 166.764L426.216 118.95C443.191 105.502 464.179 99.579 485.591 102.061L478.566 162.656ZM464.095 166.764L501.974 214.577C505.629 211.682 509.409 207.588 512.396 202.217C515.38 196.849 516.85 191.505 517.379 186.935L456.785 179.91L396.191 172.885C398.674 151.474 409.242 132.397 426.216 118.95L464.095 166.764ZM456.785 179.91L517.379 186.935L515.569 202.549L454.975 195.524L394.381 188.499L396.191 172.885L456.785 179.91ZM454.975 195.524L462 134.93L469.807 135.835L462.782 196.43L455.757 257.024L447.95 256.119L454.975 195.524Z" fill="#D1DFD8" mask="url(#path-15-inside-5_279_3488)"/>
</svg>
